<?xml version="1.0"?>
<!DOCTYPE svg PUBLIC "-//W3C//DTD SVG 1.1//EN" "http://www.w3.org/Graphics/SVG/1.1/DTD/svg11.dtd">
<svg viewBox="45 28 535 215" xmlns="http://www.w3.org/2000/svg">
	<g fill="#C8DBEB">
		<path d="m189.64 153.71c-20.184 0-40.368-4.479-55.744-13.43-23.087-13.433-28.858-33.142-17.319-49.712l5.452-6.028 32.694 1.383 0.45 3e-3 -5.995 4.722c-12.173 11.837-10.147 27.944 6.078 38.361 9.274 5.955 21.438 8.935 33.601 8.935s24.327-2.98 33.597-8.935c16.223-10.417 18.255-26.524 6.085-38.361l-5.731-4.507 15.383-0.218 19.563-0.828 4.948 5.473c11.54 16.571 5.769 36.28-17.308 49.712-15.386 8.952-35.57 13.43-55.754 13.43z"/>
		<path d="m322.53 83.844-1.678-2.737-3.027 0.308-27.767 1.982 3.482 5.639c10.966 20.993 1.826 44.641-27.419 61.199-8.01 4.535-16.971 8.201-26.509 11.027h49.914c35.746-21.206 46.768-50.95 33.004-77.418z"/>
		<path d="m88.271 161.27h50.229c-9.539-2.826-18.494-6.504-26.505-11.039-31.911-18.062-39.881-44.563-23.929-66.852l0.806-0.988-13.796-0.981-17.248-1.752-2.559 4.181c-13.767 26.472-2.754 56.224 33.002 77.431z"/>
		<path d="m328.23 161.26h36.12c27.727-26.009 33.962-56.979 18.651-85.21l-1.264-1.979-26.398 3.531-5.039 0.511 2.867 4.367c14.642 26.392 6.312 55.633-24.937 78.78z"/>
		<path d="m397.42 161.26h33.863c24.032-29.759 27.52-63.101 10.394-93.895l-2.154-3.273-14.82 3.074-15.256 2.57 2.307 3.48c16.248 28.993 11.45 60.572-14.334 88.044z"/>
		<path d="m464.1 161.26h34.226c20.901-33.05 22.187-68.897 3.791-102.28l-5.883-9.024-11.102 3.394-18.295 4.604 4.186 6.42c17.485 31.691 15.157 65.851-6.923 96.888z"/>
		<path d="m530.41 161.27h31.555c22.219-42.705 17.723-88.588-13.543-130l-0.475-0.581-12.936 5.904-13 4.809 9.324 14.155c19.206 34.46 18.882 71.334-0.925 105.71z"/>
	</g>
	<g fill="#1D1D1B">
		<path d="m134.32 204.06c-3.633 11.875-16.523 17.332-30.703 17.332-8.789 0-17.343-1.531-24.14-6.414-6.445-4.693-9.843-11.396-9.727-18.387-0.117-6.607 3.047-13.789 8.672-18.48 6.094-5.172 15.234-7.566 23.789-7.566 19.922 0 32.109 10.535 32.109 26.621v2.586h-40.194c0 5.268 2.109 9.096 9.14 9.096 5.273 0 8.203-1.723 9.141-5.936l21.913 1.148zm-23.437-13.885c0-4.789-1.875-8.426-8.438-8.426-6.094 0-8.32 3.926-8.32 8.426h16.758z"/>
		<path d="m177.33 125.15v50.371c-3.632-2.969-8.554-4.98-14.296-4.98-18.046 0-23.906 13.119-23.906 25.664 0 12.066 5.977 25.184 23.202 25.184 7.5 0 12.539-2.105 15.938-7.469h0.234v6.512h22.031v-94.714c-6.806 5.409-16.608 5.22-23.203-0.568zm-1.406 81.014c-1.29 1.627-2.813 2.488-5.157 2.488-7.265 0-7.617-7.66-7.617-11.969 0-2.682 0.469-6.416 1.173-9.098 0.702-2.967 2.46-5.17 6.562-5.17 1.875 0 3.984 0.67 5.04 1.914 1.523 1.533 1.406 3.832 1.406 5.746v9.863c-1e-3 2.396 0.233 4.119-1.407 6.226z"/>
		<path d="m246.35 220.43v-8.043h-0.234c-2.461 6.32-10.43 9-18.164 9-4.922 0-9.727-0.957-13.358-3.734-4.22-3.447-4.688-7.756-4.688-12.352v-33.803h23.203v29.588c0 3.16-0.117 6.512 5.155 6.512 2.345 0 4.571-1.053 5.626-2.775 1.055-1.629 1.172-3.352 1.172-5.172v-28.152h23.202v48.932h-21.914z"/>
	</g>
	<g fill="#00658D">
		<path d="m300.14 181.56c1.992-6.799 6.327-11.588 15.585-11.014l3.162 0.191v17.143c-1.404-0.289-2.928-0.48-4.451-0.48-3.75 0-7.617 0.576-9.491 3.354-1.641 2.393-1.641 5.553-1.641 8.426v21.258h-23.203v-48.932h19.804v10.055h0.235z"/>
		<path d="m388.14 196.4c0 14.842-14.648 24.992-32.93 24.992s-32.928-10.15-32.928-24.992c0-15.705 14.18-25.855 32.928-25.855 18.75 0 32.93 10.15 32.93 25.855zm-41.016-0.669c0 13.117 3.867 14.076 8.086 14.076s8.086-0.959 8.086-14.076c0-4.691-0.117-13.215-8.086-13.215s-8.086 8.523-8.086 13.215z"/>
		<path d="m433.84 220.43c-0.588-2.201-0.822-4.5-0.822-6.799-4.686 5.65-11.365 7.756-19.568 7.756-11.133 0-20.859-4.979-20.859-14.746 0-7.756 7.383-12.926 15.703-15.033 7.617-1.916 15.703-2.682 23.555-3.064v-0.383c0-4.406-1.406-6.129-7.031-6.129-4.57 0-8.438 1.34-9.141 5.457l-21.328-1.627c3.516-12.16 17.695-15.322 31.172-15.322 7.031 0 16.055 0.768 21.912 4.215 7.852 4.5 6.916 10.82 6.916 17.811v17.141c0 3.639 0.115 7.277 1.873 10.725h-22.382zm-1.992-22.885c-5.625 0.479-15 1.914-15 7.852 0 3.16 2.461 4.5 6.094 4.5 8.789 0 8.906-6.033 8.906-11.395v-0.957z"/>
		<path d="m484.46 171.5v6.607h0.234c3.281-4.98 9.258-7.566 16.289-7.566 7.383 0 13.24 2.299 16.875 7.566 4.102-5.459 10.078-7.566 17.928-7.566 5.039 0 10.43 1.244 13.947 4.215 4.336 3.639 4.336 8.428 4.336 13.598v32.078h-22.736v-29.396c0-3.16 0.469-6.705-4.92-6.705-6.563 0-6.328 4.98-6.328 8.906v27.195h-22.734v-29.396c0-3.064-0.234-6.992-5.273-6.992-5.508 0-5.977 3.352-5.977 6.992v29.396h-22.733v-48.932h21.092z"/>
	</g>
	<path d="m200.03 120.81c-5.931 5.93-15.558 5.93-21.488 0-5.931-5.93-5.931-15.557 0-21.488 5.931-5.929 15.558-5.929 21.488 0 5.93 5.931 5.93 15.557 0 21.488z" fill="#1D1D1B"/>
</svg>
