<svg xmlns:xlink="http://www.w3.org/1999/xlink" xmlns="http://www.w3.org/2000/svg" width="512" height="512" preserveAspectRatio="xMidYMid meet" viewBox="0 0 512 512" style="-ms-transform: rotate(360deg); -webkit-transform: rotate(360deg); transform: rotate(360deg);">
    <path d="M448 256c0-106-86-192-192-192S64 150 64 256s86 192 192 192s192-86 192-192z" fill="none" stroke="#626262" stroke-miterlimit="10" stroke-width="32"/>
    <path d="M250.26 166.05L256 288l5.73-121.95a5.74 5.74 0 0 0-5.79-6h0a5.74 5.74 0 0 0-5.68 6z" fill="none" stroke="#626262" stroke-linecap="round" stroke-linejoin="round" stroke-width="32"/>
    <path d="M256 367.91a20 20 0 1 1 20-20a20 20 0 0 1-20 20z" fill="#626262"/>
    <rect x="0" y="0" width="512" height="512" fill="rgba(0, 0, 0, 0)" />
</svg>
