<?xml version="1.0" encoding="utf-8"?>
<svg xmlns:xlink="http://www.w3.org/1999/xlink" version="1.1" xmlns="http://www.w3.org/2000/svg" x="0px" y="0px" viewBox="0 0 1000 1000" fill="#a3a09e" enable-background="new 0 0 1000 1000" xml:space="preserve">
<g><path d="M745,424.6V255c0-135.3-109.7-245-245-245c-135.3,0-245,109.7-245,245v169.6H123.1V990h753.8V424.6H745z M292.7,255c0-114.3,93-207.3,207.3-207.3c114.3,0,207.3,93,207.3,207.3v169.6H292.7V255z M839.2,952.3H160.8v-490h678.5V952.3z"/><path d="M500,575.4c-41.6,0-75.4,33.8-75.4,75.4c0,35.1,24,64.6,56.5,73v77.8h37.7v-77.8c32.5-8.4,56.5-37.9,56.5-73C575.4,609.1,541.6,575.4,500,575.4z M500,688.5c-20.8,0-37.7-16.9-37.7-37.7c0-20.8,16.9-37.7,37.7-37.7s37.7,16.9,37.7,37.7C537.7,671.6,520.8,688.5,500,688.5z"/></g>
</svg>
